<svg height="512pt" viewBox="-10 0 512 512" width="512pt" xmlns="http://www.w3.org/2000/svg"><path d="m415.191406 29.585938c11.816406 0 21.839844 2.273437 30.277344 5.777343.234375-1.539062.363281-3.117187.363281-4.722656 0-16.921875-13.71875-30.640625-30.640625-30.640625s-30.636718 13.71875-30.636718 30.640625c0 1.605469.125 3.183594.363281 4.722656 8.4375-3.503906 18.460937-5.777343 30.273437-5.777343zm0 0" fill="#0c3a6d"/><path d="m414.316406.0234375c-16.515625.4648435-29.761718 13.9882815-29.761718 30.6171875 0 1.605469.125 3.183594.359374 4.722656 7.394532-3.066406 16-5.191406 25.964844-5.671875-8.585937-8.667968-7.015625-23.101562 3.4375-29.6679685zm0 0" fill="#072a5e"/><path d="m245 22c-135.308594 0-245 109.691406-245 245s109.691406 245 245 245 245-109.691406 245-245-109.691406-245-245-245zm0 0" fill="#2ae0af"/><path d="m357.851562 252.585938c7.496094 18.855468 21.664063 47.257812 46.636719 75.453124 5.683594 6.417969 15.726563 6.417969 21.410157 0 24.96875-28.195312 39.136718-56.597656 46.632812-75.453124.519531-1.300782 1.347656-2.410157 2.363281-3.28125l-5.628906-1.824219c-2.953125-1.28125-5.640625-3.363281-7.972656-5.914063-11.445313-12.507812-7.652344-27.742187-7.824219-30.078125-7.539062 8.632813-16.996094 15.507813-27.648438 20.117188-6.765624 2.929687-14.519531 2.917969-21.257812 0-10.652344-4.609375-20.109375-11.484375-27.648438-20.117188-.171874 2.386719 3.660157 17.527344-7.824218 30.078125-2.332032 2.550782-5.015625 4.632813-7.972656 5.914063l-5.628907 1.824219c1.019531.871093 1.84375 1.980468 2.363281 3.28125zm0 0" fill="#f9bd91"/><path d="m378.792969 275.972656c12.566406-5.523437 26.074219-21.464844 28.050781-43.507812-.769531-.253906-1.53125-.535156-2.28125-.859375-10.652344-4.609375-20.109375-11.484375-27.648438-20.117188-.175781 2.386719 3.660157 17.527344-7.824218 30.078125-2.332032 2.550782-5.015625 4.632813-7.972656 5.914063l-5.628907 1.824219c1.019531.871093 1.84375 1.980468 2.363281 3.28125 2.960938 7.453124 6.972657 16.402343 12.273438 26.234374zm0 0" fill="#f4ae7f"/><path d="m355.316406 120.621094c.855469-2.804688 2.03125-5.234375 3.617188-7.019532 1.425781-1.609374 2.320312-3.601562 2.386718-5.730468.371094-12.4375 5.152344-50.765625 51.0625-33.167969 1.804688.695313 3.816407.695313 5.621094 0 45.910156-17.597656 50.691406 20.730469 51.0625 33.167969.066406 2.128906.960938 4.121094 2.386719 5.730468 1.585937 1.785157 2.761719 4.214844 3.617187 7.019532 2.324219-1.550782 5.9375-1.242188 9.199219-1.164063l.003907-.011719v-29.597656c0-22.878906-12.753907-44.078125-33.449219-54.757812-9.453125-4.875-21.210938-8.261719-35.628907-8.261719-14.421874 0-26.175781 3.386719-35.632812 8.261719-20.695312 10.679687-33.445312 31.878906-33.445312 54.757812v29.609375c3.261718-.078125 6.871093-.386719 9.199218 1.164063zm0 0" fill="#104a7c"/><path d="m477.589844 247.261719c-3.308594 0-6.265625 2.023437-7.488282 5.097656-7.175781 18.058594-20.746093 45.253906-44.660156 72.257813-5.441406 6.144531-15.058594 6.144531-20.5 0-23.914062-27.003907-37.480468-54.199219-44.660156-72.257813-1.222656-3.074219-4.179688-5.097656-7.484375-5.097656-1.105469 0-2.191406.226562-3.203125.664062l-29.914062 12.972657c-3.585938 1.558593-7.328126 2.714843-11.167969 3.445312-9.109375 1.730469-29.300781 8.089844-40.789063 31.0625-15.160156 30.324219-13.78125 112.328125-8.269531 161.941406l.230469 54.203125c16.609375-.984375 32.777344-3.617187 48.332031-7.746093l-.25-105.734376c-.003906-.664062.535156-1.203124 1.199219-1.203124.589844 0 1.085937.417968 1.179687.996093 1.3125 8.015625 3.320313 16.734375 6.394531 24.890625 4.832032 12.824219 8.070313 26.195313 9.214844 39.851563l2.910156 34.730469c94.109376-34.191407 161.335938-124.410157 161.335938-230.335938 0-5.136719-.175781-10.230469-.488281-15.289062l-8.71875-3.785157c-1.011719-.4375-2.101563-.664062-3.203125-.664062zm0 0" fill="#fc86bf"/><path d="m282.777344 455.019531c-5.511719-51.753906-6.890625-137.285156 8.269531-168.910156 4.757813-9.929687 11.011719-16.875 17.351563-21.742187-9.160157 1.761718-29.234376 8.15625-40.675782 31.042968-15.160156 30.320313-13.78125 112.324219-8.269531 161.941406l.226563 54.199219c7.878906-.464843 15.65625-1.316406 23.316406-2.507812zm0 0" fill="#fa6db8"/><path d="m408.898438 27.058594c-11.589844.828125-21.296876 3.886718-29.335938 8.03125-20.695312 10.679687-33.449219 31.878906-33.449219 54.757812v29.609375c3.265625-.078125 6.875-.386719 9.203125 1.164063.855469-2.804688 2.03125-5.234375 3.617188-7.019532 1.425781-1.609374 2.320312-3.601562 2.386718-5.730468.347657-11.707032 4.609376-46.34375 43.390626-35.699219-17.066407-11.40625-14.554688-37.109375 4.1875-45.113281zm0 0" fill="#0c3a6d"/><path d="m356.695312 120.621094c-3.917968-2.609375-11.480468-3.886719-14.882812-.558594-6.96875 6.808594-1.863281 17.09375.578125 23.589844.75 1.992187 1.234375 4.011718 1.453125 6.03125.476562 4.394531 2.855469 10.820312 12.730469 10.667968-1.914063-8.097656-3.253907-28.6875.121093-39.730468zm0 0" fill="#f9bd91"/><path d="m488.570312 120.0625c-3.398437-3.328125-10.964843-2.050781-14.882812.558594 3.394531 11.105468 1.976562 31.863281.121094 39.730468 9.875.152344 12.253906-6.273437 12.730468-10.667968.21875-2.019532.703126-4.039063 1.453126-6.03125 2.441406-6.496094 7.546874-16.78125.578124-23.589844zm0 0" fill="#f9bd91"/><path d="m354.667969 141.800781c-5.113281 1.628907-10.722657.199219-14.445313-3.808593.730469 2.054687 1.539063 3.984374 2.167969 5.660156.75 1.992187 1.234375 4.011718 1.453125 6.03125.476562 4.394531 2.855469 10.820312 12.730469 10.667968-1.152344-4.886718-1.761719-13.640624-1.90625-18.550781zm0 0" fill="#f4ae7f"/><path d="m475.714844 141.800781c-.144532 4.878907-.746094 13.648438-1.90625 18.550781 9.875.152344 12.253906-6.277343 12.730468-10.667968.21875-2.019532.703126-4.039063 1.453126-6.03125.628906-1.675782 1.4375-3.605469 2.167968-5.664063-3.714844 4.003907-9.320312 5.445313-14.445312 3.8125zm0 0" fill="#f4ae7f"/><path d="m147.339844 241.683594c-1.914063-.511719-3.84375-1.003906-5.792969-1.453125-7.628906-7.628907-9.5625-22.089844-9.910156-32.207031-10.691407 12.453124-22.863281 20.933593-39.410157 20.933593-16.539062 0-28.714843-8.480469-39.40625-20.933593-.351562 10.117187-2.285156 24.578124-9.910156 32.207031-1.953125.449219-3.878906.941406-5.792968 1.453125 30.003906 31.40625 80.21875 31.40625 110.222656 0zm0 0" fill="#f9bd91"/><path d="m52.820312 208.023438c-.351562 10.117187-2.285156 24.578124-9.910156 32.207031-1.953125.449219-3.878906.941406-5.792968 1.453125 13.011718 13.621094 29.824218 21.324218 47.140624 23.132812 3.746094-9.757812 5.8125-22.957031 6.925782-35.878906-16.066406-.378906-27.898438-8.722656-38.363282-20.914062zm0 0" fill="#f4ae7f"/><path d="m265.976562 451.144531s2.410157-9.636719 3.082032-25.578125l-58.308594 6.957032c1.011719 9.585937 2.484375 18.746093 4.632812 25.683593l1.710938 52.203125c9.160156 1.039063 18.46875 1.589844 27.90625 1.589844 5.300781 0 10.554688-.1875 15.773438-.519531.6875-4.007813 5.203124-31.519531 5.203124-60.335938zm0 0" fill="#f9bd91"/><path d="m202.257812 264.546875c-5.082031-.414063-7.789062-2.386719-13.78125-5.765625-14.96875-8.441406-30.1875-14.6875-46.929687-18.550781-26.425781 29.132812-72.210937 29.132812-98.636719 0-15.15625 3.496093-29.0625 8.96875-42.667968 16.234375-.148438 3.492187-.242188 7.003906-.242188 10.535156 0 117.621094 82.890625 215.863281 193.441406 239.546875 1.785156-9.03125 5.027344-27.914063 5.027344-46.136719 0-16.960937 4.601562-34.332031 7.605469-52.636718.121093-.722657.742187-1.253907 1.472656-1.253907.804687 0 1.460937.621094 1.492187 1.425781.347657 8.554688.953126 18.117188 1.996094 27.148438l57.800782-5.394531c1.042968-16.222657.449218-40.382813-7.269532-68.125 0 0 9.835938-91.375-59.308594-97.027344zm0 0" fill="#409ff5"/><path d="m92.226562 279.664062c27.273438 0 51.324219-13.785156 65.574219-34.765624-5.285156-1.808594-10.679687-3.382813-16.253906-4.667969-26.425781 29.132812-72.210937 29.132812-98.636719 0-5.574218 1.285156-10.96875 2.859375-16.253906 4.667969 14.25 20.980468 38.300781 34.765624 65.570312 34.765624zm0 0" fill="#0e8ddb"/><path d="m167.070312 327.695312h-21.945312c-4.296875 0-7.8125 3.515626-7.8125 7.8125 0 4.296876 3.515625 7.8125 7.8125 7.8125h21.945312c4.296876 0 7.8125-3.515624 7.8125-7.8125 0-4.296874-3.515624-7.8125-7.8125-7.8125zm0 0" fill="#0e8ddb"/><path d="m156.097656 335.507812c0-4.296874 3.515625-7.8125 7.8125-7.8125h-18.785156c-4.296875 0-7.816406 3.515626-7.816406 7.8125 0 4.296876 3.515625 7.8125 7.816406 7.8125h18.785156c-4.296875 0-7.8125-3.515624-7.8125-7.8125zm0 0" fill="#057ec9"/><path d="m80.425781 21.050781c-39.578125 5.390625-43.339843 27.832031-43.359375 36.066407-.003906 1.726562-.957031 3.324218-2.511718 4.082031-20.585938 10.015625-9.488282 58.285156-9.488282 58.285156 2.070313.136719 4.234375.972656 5.847656 1.753906 1.988282-12.386719 7.757813-13.257812 7.082032-22.429687-.738282-10.070313-.382813-29.914063 12.910156-35.894532 11.257812-5.066406 25.074219-2.132812 33.882812.796876 5.71875 1.902343 11.917969 1.902343 17.636719 0 8.808594-2.929688 22.621094-5.863282 33.882813-.796876 13.253906 5.964844 13.648437 25.710938 12.914062 35.808594-.675781 9.34375 5.085938 10.105469 7.078125 22.515625 2.035157-.984375 4.941407-2.058593 7.429688-1.707031.304687-10.554688 1.28125-21.933594 1.28125-21.933594 11.726562-57.445312-41.96875-82.355468-84.585938-76.546875zm0 0" fill="#0c3a6d"/><path d="m168.179688 120.902344c-3.082032-2.824219-9.222657-1.390625-11.878907.339844.582031 3.621093.617188 7.328124.113281 10.984374l-3.132812 22.820313c0 1.839844-.058594 3.644531-.164062 5.417969 7.640624 2.304687 11.433593-4.554688 12.074218-9.261719.273438-2.027344.722656-4.023437 1.347656-5.972656 2.03125-6.347657 9.363282-17.25 1.640626-24.328125zm0 0" fill="#f9bd91"/><path d="m155.132812 141.570312c5.246094 2.402344 11.371094.613282 14.539063-4.125-1.910156 4.949219-3.640625 7.578126-4.480469 13.757813-.640625 4.707031-4.433594 11.566406-12.074218 9.261719.105468-1.773438.164062-3.578125.164062-5.417969zm0 0" fill="#f4ae7f"/><path d="m80.441406 21.046875c-.003906.003906-.007812.003906-.015625.003906-39.578125 5.390625-43.339843 27.832031-43.359375 36.066407-.003906 1.726562-.957031 3.324218-2.511718 4.082031-20.585938 10.015625-9.488282 58.285156-9.488282 58.285156 2.070313.136719 4.234375.972656 5.847656 1.753906 1.988282-12.382812 7.757813-13.257812 7.082032-22.429687-.738282-10.070313-.382813-29.914063 12.910156-35.894532 8.863281-3.988281 19.296875-3.015624 27.636719-.992187-13.800781-10.535156-12.878907-31.621094 1.898437-40.875zm0 0" fill="#072a5e"/><path d="m19.035156 120.902344c3.082032-2.824219 9.222656-1.390625 11.875.339844-.582031 3.621093-.613281 7.328124-.109375 10.984374l3.132813 22.820313c0 1.839844.058594 3.644531.164062 5.417969-7.640625 2.304687-11.4375-4.554688-12.074218-9.261719-.277344-2.027344-.726563-4.023437-1.347657-5.972656-2.035156-6.347657-9.367187-17.25-1.640625-24.328125zm0 0" fill="#f9bd91"/><path d="m32.082031 141.570312c-5.246093 2.402344-11.371093.613282-14.542969-4.125 1.121094 2.90625 2.441407 5.613282 3.136719 7.785157.621094 1.949219 1.070313 3.945312 1.347657 5.972656.636718 4.707031 4.433593 11.566406 12.074218 9.261719-.105468-1.773438-.164062-3.578125-.164062-5.417969zm0 0" fill="#f4ae7f"/><path d="m85.402344 261.730469c-15.707032-1.605469-30.945313-8.773438-42.492188-21.5-5.574218 1.285156-10.96875 2.859375-16.253906 4.667969 12.101562 17.816406 31.269531 30.4375 53.476562 33.84375-6.128906-5.601563-2.996093-15.863282 5.269532-17.011719zm0 0" fill="#057ec9"/><path d="m325.753906 462.605469 2.910156 34.730469c7.574219-2.75 14.972657-5.871094 22.175782-9.328126-3.554688-20.949218-10.261719-45.160156-20.839844-58.589843-9.113281-11.570313-19.855469-31.554688-19.855469-31.554688 1.308594 8.015625 3.316407 16.734375 6.390625 24.890625 4.835938 12.824219 8.070313 26.195313 9.21875 39.851563zm0 0" fill="#fa6db8"/><path d="m232.546875 465.507812c.476563-6.585937.21875-13.203124-.832031-19.726562-.636719-3.9375-1.367188-9.105469-2.074219-15.511719l-18.890625 2.253907c1.011719 9.585937 2.484375 18.746093 4.632812 25.679687l1.710938 52.203125c5.539062.628906 11.132812 1.054688 16.777344 1.3125-2.820313-15.875-2.152344-34.796875-1.324219-46.210938zm0 0" fill="#f4ae7f"/><path d="m207.546875 406.519531c.800781 0 1.460937.621094 1.492187 1.425781.347657 8.554688.953126 18.117188 1.996094 27.148438l18.953125-1.769531c-.421875-3.582031-.847656-7.601563-1.238281-12.074219-2-22.75-21.203125-14.730469-21.203125-14.730469zm0 0" fill="#0e8ddb"/><path d="m269.15625 411.984375-59.628906 5.5625c.355468 5.800781.84375 11.78125 1.507812 17.546875l57.800782-5.394531c.328124-5.148438.492187-11.105469.320312-17.714844zm0 0" fill="#0e8ddb"/><path d="m211.035156 435.09375 18.953125-1.769531c-.421875-3.585938-.847656-7.601563-1.238281-12.074219-.179688-2.046875-.503906-3.832031-.9375-5.410156l-18.285156 1.707031c.355468 5.800781.84375 11.78125 1.507812 17.546875zm0 0" fill="#057ec9"/><path d="m471.453125 112.375c-1.429687-1.625-2.324219-3.636719-2.386719-5.785156-.371094-12.5625-5.152344-51.277344-51.0625-33.5-1.804687.699218-3.820312.699218-5.625 0-45.910156-17.777344-50.691406 20.9375-51.0625 33.5-.0625 2.148437-.957031 4.160156-2.386718 5.785156-9.570313 10.890625-4.183594 45.304688-4.183594 45.304688 4.578125 20.398437 10.953125 35.554687 17.390625 46.675781 7.613281 13.164062 19.324219 23.417969 33.210937 29.484375 6.242188 2.726562 13.417969 2.738281 19.683594 0 13.886719-6.066406 25.601562-16.320313 33.214844-29.484375 6.433594-11.121094 12.8125-26.277344 17.390625-46.675781 0 0 5.386719-34.410157-4.183594-45.304688zm0 0" fill="#fcd2ae"/><path d="m399.480469 204.359375c-17.097657-39.960937-16.191407-82.097656-9.769531-91.984375 1.058593-1.625 1.71875-3.636719 1.765624-5.785156.1875-8.550782 1.890626-29.214844 13.664063-35.933594-39.179687-11.128906-43.472656 24.066406-43.824219 35.933594-.0625 2.148437-.957031 4.160156-2.386718 5.785156-9.570313 10.890625-4.183594 45.304688-4.183594 45.304688 4.578125 20.398437 10.953125 35.554687 17.390625 46.675781 7.613281 13.164062 19.328125 23.417969 33.214843 29.484375 6.050782 2.644531 12.984376 2.726562 19.113282.230468-9.042969-4.976562-18.761719-15.167968-24.984375-29.710937zm0 0" fill="#f9bd91"/><path d="m154.414062 112.882812c-2.25-5.945312-5.714843-8.304687-5.191406-15.640624.734375-10.210938.339844-30.179688-12.914062-36.210938-11.257813-5.121094-25.074219-2.15625-33.882813.808594-5.71875 1.921875-11.917969 1.921875-17.640625 0-8.808594-2.964844-22.621094-5.929688-33.882812-.808594-13.289063 6.050781-13.648438 26.113281-12.90625 36.296875.519531 7.164063-2.917969 9.625-5.132813 15.378906-2.253906 5.851563-2.910156 12.195313-2.066406 18.40625l3.136719 23.082031c0 33.179688 17.515625 55.730469 32.414062 67.429688 16.007813 12.570312 38.527344 12.554688 54.515625 0 14.898438-11.699219 32.414063-34.25 32.414063-67.429688l3.132812-23.074218c.839844-6.152344.207032-12.433594-1.996094-18.238282zm0 0" fill="#fcd2ae"/><path d="m88.222656 221.628906c-11.296875-11.699218-24.574218-34.253906-24.574218-67.433594-1.320313-18.65625-4.683594-28.214843-.808594-41.484374 1.730468-5.933594 4.28125-8.230469 3.886718-15.382813-.558593-10.183594-.289062-30.246094 9.789063-36.292969.648437-.390625 1.308594-.71875 1.976563-1.019531-8.332032-2.035156-18.742188-3.007813-27.589844 1.019531-13.289063 6.046875-13.648438 26.109375-12.90625 36.292969.519531 7.164063-2.917969 9.625-5.132813 15.382813-2.253906 5.847656-2.910156 12.191406-2.066406 18.40625l3.136719 23.078124c0 33.179688 17.515625 55.734376 32.414062 67.433594 9.992188 7.84375 23.066406 11.140625 35.949219 8.550782-5.101563-1.351563-9.929687-4.257813-14.074219-8.550782zm0 0" fill="#f9bd91"/></svg>