<svg id="Layer_1" height="512" viewBox="0 0 512 512" width="512" xmlns="http://www.w3.org/2000/svg" xmlns:xlink="http://www.w3.org/1999/xlink" data-name="Layer 1"><linearGradient id="linear-gradient" gradientUnits="userSpaceOnUse" x1="346.286" x2="191.952" y1="154.667" y2="154.667"><stop offset="0" stop-color="#4793eb"/><stop offset="1" stop-color="#2367ec"/></linearGradient><linearGradient id="linear-gradient-2" gradientUnits="userSpaceOnUse" x1="315.75" x2="242.407" y1="154.667" y2="154.667"><stop offset="0" stop-color="#fff"/><stop offset="1" stop-color="#edf1f2"/></linearGradient><linearGradient id="linear-gradient-3" x1="176.571" x2="22.28" xlink:href="#linear-gradient" y1="165.333" y2="165.333"/><linearGradient id="linear-gradient-4" x1="131.571" x2="84.164" xlink:href="#linear-gradient-2" y1="165.333" y2="165.333"/><linearGradient id="linear-gradient-5" x1="480.643" x2="355.948" xlink:href="#linear-gradient" y1="336" y2="336"/><linearGradient id="linear-gradient-6" x1="353.357" x2="25.465" xlink:href="#linear-gradient" y1="336" y2="336"/><linearGradient id="linear-gradient-7" x1="136.393" x2="82.393" xlink:href="#linear-gradient-2" y1="384" y2="384"/><circle cx="272" cy="154.667" fill="url(#linear-gradient)" r="90.667"/><circle cx="272" cy="154.667" fill="url(#linear-gradient-2)" r="42.667"/><circle cx="101.333" cy="165.333" fill="url(#linear-gradient-3)" r="80"/><circle cx="101.333" cy="165.333" fill="url(#linear-gradient-4)" r="32"/><path d="m474.605 244.06a31.667 31.667 0 0 0 -32.063.108l-95.917 55.952a10.666 10.666 0 0 0 -5.292 9.213v53.334a10.666 10.666 0 0 0 5.292 9.213l95.917 55.952a32 32 0 0 0 48.124-27.64v-128.384a31.665 31.665 0 0 0 -16.061-27.748z" fill="url(#linear-gradient-5)"/><rect fill="url(#linear-gradient-6)" height="224" rx="53.333" width="341.333" x="21.333" y="224"/><path d="m128 394.667h-42.667a10.667 10.667 0 0 1 0-21.334h42.667a10.667 10.667 0 0 1 0 21.334z" fill="url(#linear-gradient-7)"/></svg>