<svg id="Layer" height="512" viewBox="0 0 24 24" width="512" xmlns="http://www.w3.org/2000/svg"><g id="minimize" fill="#396ce8"><path d="m15 10a1 1 0 0 1 -.707-1.707l6-6a1 1 0 1 1 1.414 1.414l-6 6a1 1 0 0 1 -.707.293zm-5.293-.293a1 1 0 0 0 0-1.414l-6-6a1 1 0 0 0 -1.414 1.414l6 6a1 1 0 0 0 1.414 0zm-6 12 6-6a1 1 0 0 0 -1.414-1.414l-6 6a1 1 0 1 0 1.414 1.414zm18 0a1 1 0 0 0 0-1.414l-6-6a1 1 0 0 0 -1.414 1.414l6 6a1 1 0 0 0 1.414 0z" opacity=".4"/><path d="m19 10h-4a1 1 0 0 1 -1-1v-4a1 1 0 0 1 2 0v3h3a1 1 0 0 1 0 2zm-9-1v-4a1 1 0 0 0 -2 0v3h-3a1 1 0 0 0 0 2h4a1 1 0 0 0 1-1zm0 10v-4a1 1 0 0 0 -1-1h-4a1 1 0 0 0 0 2h3v3a1 1 0 0 0 2 0zm6 0v-3h3a1 1 0 0 0 0-2h-4a1 1 0 0 0 -1 1v4a1 1 0 0 0 2 0z"/></g></svg>