<svg id="SVGRoot" height="512" viewBox="0 0 512 512" width="512" xmlns="http://www.w3.org/2000/svg" xmlns:svg="http://www.w3.org/2000/svg"><g id="g2888" clip-rule="evenodd" fill-rule="evenodd" stroke-linecap="round" stroke-linejoin="round" stroke-miterlimit="10" transform="translate(20.974 -5.787)"><g id="g2870" stroke-width="22.001"><path id="path2702" d="m235.0261 5.7871094c-14.28051 0-28.56193 7.2154536-35.77744 21.6464846l-211.277943 422.554686c-15.368136 30.73613 7.5344122 67.79463 41.898556 67.79492l410.311707.004c34.36405.00034 57.2687-37.05893 41.90051-67.79492l-211.2799-422.558686c-7.21552-14.431031-21.49497-21.6464846-35.77549-21.6464846z" fill="#ef5350"/><path id="path2702-3" d="m235.02484 5.7871094c-3.71042 0-7.41341.5121144-11 1.4863281 10.21675 2.7752945 19.43465 9.4786715 24.77539 20.1601565l211.28125 422.558596c15.36758 30.73477-7.53468 67.7924-41.89648 67.79492h21.99609c34.36402.00034 57.26857-37.05896 41.90039-67.79492l-211.28125-422.558596c-7.21551-14.431016-21.49488-21.6464846-35.77539-21.6464846z" fill="#f44336"/></g><g id="g2880" stroke-width="22"><path id="path2696" d="m235.02497 210c-30.16748 0-54.86108 24.69015-54.86109 54.85727 0 15.83298 6.84282 30.11414 17.66789 40.15224-26.177 10.67152-46.80747 32.23427-56.11498 59.11897-3.91454 11.30723-.59462 23.22423 6.40426 31.00577 6.99891 7.78153 17.28025 12.30075 28.42371 12.30075h116.95847c11.14303 0 21.42462-4.52001 28.42369-12.30075 6.99908-7.78075 10.32012-19.69507 6.40623-31.00187a11.001301 11.001319 0 0 0 0-.002c-9.30707-26.88655-29.9384-48.4491-56.11694-59.12092 10.82532-10.03812 17.66789-24.31905 17.6679-40.15224-.00001-30.16701-24.69166-54.85722-54.85914-54.85722z" fill="#ffebee"/><path id="path2696-7" d="m235.02456 209.9997c-3.76408 0-7.44369.38379-11 1.11523 24.94465 5.13147 43.85937 27.3398 43.85938 53.74202-.00001 15.83314-6.84266 30.11415-17.66797 40.15223 26.17851 10.67177 46.81012 32.23447 56.11718 59.12091a11.001301 11.001286 0 0 0 0 .002c3.91389 11.30676.59283 23.22114-6.40625 31.00187-6.99906 7.7807-17.2808 12.30074-28.42382 12.30074h22c11.14302 0 21.42476-4.52004 28.42382-12.30074 6.99908-7.78073 10.32014-19.69511 6.40625-31.00187a11.001301 11.001286 0 0 0 0-.002c-9.30706-26.88644-29.93867-48.44914-56.11718-59.12091 10.82531-10.03808 17.66796-24.31909 17.66797-40.15223-.00001-30.16689-24.69193-54.85725-54.85938-54.85725z" fill="#ffcdd2"/></g></g></svg>