<svg id="Layer" height="512" viewBox="0 0 24 24" width="512" xmlns="http://www.w3.org/2000/svg"><g id="maximize" fill="#396ce8"><path d="m13.414 12 7.293-7.293a1 1 0 1 0 -1.414-1.414l-7.293 7.293-7.293-7.293a1 1 0 0 0 -1.414 1.414l7.293 7.293-7.293 7.293a1 1 0 1 0 1.414 1.414l7.293-7.293 7.293 7.293a1 1 0 0 0 1.414-1.414z" opacity=".4"/><path d="m8 21h-4a1 1 0 0 1 -1-1v-4a1 1 0 0 1 2 0v3h3a1 1 0 0 1 0 2zm13-13v-4a1 1 0 0 0 -1-1h-4a1 1 0 0 0 0 2h3v3a1 1 0 0 0 2 0zm0 12v-4a1 1 0 0 0 -2 0v3h-3a1 1 0 0 0 0 2h4a1 1 0 0 0 1-1zm-16-12v-3h3a1 1 0 0 0 0-2h-4a1 1 0 0 0 -1 1v4a1 1 0 0 0 2 0z"/></g></svg>